# xmcd
#
# Track frame offsets: 
#        150
#        20795
#        34695
#        58717
#        74697
#        91150
#        109142
#        131205
#        149022
#        173510
#        183485
#        202765
#
# Disc length: 2898 seconds
#
# Revision: 2
# Processed by: cddbd v1.5.2PL0 Copyright (c) Steve Scherf et al.
# Submitted via: ExactAudioCopy v0.99pb4
#
DISCID=b00b500c
DTITLE=Sy Klopps Blues Band - Old blue eye is back
DYEAR=1995
DGENRE=Blues
TTITLE0=Living on the highway
TTITLE1=How blue can you get
TTITLE2=Personal manager
TTITLE3=That will never do
TTITLE4=Woke up this morning
TTITLE5=Pretty women
TTITLE6=Good morning little schoolgirl
TTITLE7=Killing floor
TTITLE8=It's too late she's gone
TTITLE9=Down don't bother me
TTITLE10=Hoochie coochie man
TTITLE11=Wine
EXTD=
EXTT0=
EXTT1=
EXTT2=
EXTT3=
EXTT4=
EXTT5=
EXTT6=
EXTT7=
EXTT8=
EXTT9=
EXTT10=
EXTT11=
PLAYORDER=
